<svg width="1600" height="900" viewBox="0 0 1600 900" fill="none" xmlns="http://www.w3.org/2000/svg" role="img" aria-labelledby="title desc">
  <title id="title">공부 기록과 지식 축적을 상징하는 미니멀 아카이브 아트워크</title>
  <desc id="desc">코드, 마크다운 노트, 연결된 아이디어, 축적되는 기록 흐름을 추상적으로 표현한 미니멀 SVG</desc>
  <defs>
    <linearGradient id="bg" x1="188" y1="88" x2="1418" y2="826" gradientUnits="userSpaceOnUse">
      <stop stop-color="#F8FBFA"/>
      <stop offset="1" stop-color="#EEF4F1"/>
    </linearGradient>
    <linearGradient id="frame" x1="796" y1="146" x2="796" y2="768" gradientUnits="userSpaceOnUse">
      <stop stop-color="#FFFFFF"/>
      <stop offset="1" stop-color="#F2F7F5"/>
    </linearGradient>
    <linearGradient id="panelDark" x1="0" y1="0" x2="1" y2="1">
      <stop stop-color="#17212A"/>
      <stop offset="1" stop-color="#0F161D"/>
    </linearGradient>
    <linearGradient id="panelSoft" x1="0" y1="0" x2="1" y2="1">
      <stop stop-color="#F7FBF9"/>
      <stop offset="1" stop-color="#EEF4F1"/>
    </linearGradient>
    <linearGradient id="accentGlow" x1="0" y1="0" x2="1" y2="1">
      <stop stop-color="#5FD0B3" stop-opacity="0.28"/>
      <stop offset="1" stop-color="#7AB8FF" stop-opacity="0.08"/>
    </linearGradient>
    <filter id="softShadow" x="120" y="84" width="1360" height="752" filterUnits="userSpaceOnUse" color-interpolation-filters="sRGB">
      <feDropShadow dx="0" dy="24" stdDeviation="30" flood-color="#2D403A" flood-opacity="0.12"/>
    </filter>
  </defs>

  <rect width="1600" height="900" rx="40" fill="url(#bg)"/>
  <circle cx="1308" cy="162" r="152" fill="#E0ECE7"/>
  <circle cx="1278" cy="176" r="96" fill="#F1F7F4"/>
  <circle cx="246" cy="146" r="84" fill="#ECF5F1"/>

  <g filter="url(#softShadow)">
    <rect x="184" y="138" width="1232" height="624" rx="34" fill="url(#frame)"/>
    <rect x="228" y="188" width="662" height="520" rx="28" fill="url(#panelDark)"/>
    <rect x="258" y="220" width="602" height="460" rx="22" fill="#121B21"/>
    <rect x="276" y="238" width="566" height="424" rx="18" fill="url(#accentGlow)"/>

    <rect x="934" y="188" width="438" height="258" rx="28" fill="url(#panelSoft)"/>
    <rect x="970" y="224" width="366" height="186" rx="20" fill="#FFFFFF"/>

    <rect x="934" y="476" width="438" height="232" rx="28" fill="url(#panelSoft)"/>
    <rect x="970" y="512" width="170" height="160" rx="20" fill="#FFFFFF"/>
    <rect x="1166" y="512" width="170" height="160" rx="20" fill="#FFFFFF"/>
  </g>

  <g opacity="0.92">
    <rect x="306" y="274" width="120" height="14" rx="7" fill="#4BD0AD"/>
    <rect x="306" y="308" width="212" height="12" rx="6" fill="#748B87"/>
    <rect x="306" y="334" width="188" height="12" rx="6" fill="#9AAEA9"/>
    <rect x="306" y="386" width="144" height="12" rx="6" fill="#7EC0FF"/>
    <rect x="464" y="386" width="106" height="12" rx="6" fill="#B6C3C8"/>
    <rect x="306" y="418" width="264" height="12" rx="6" fill="#6E8782"/>
    <rect x="306" y="450" width="194" height="12" rx="6" fill="#D1AA66"/>
    <rect x="306" y="482" width="240" height="12" rx="6" fill="#8CA3AE"/>
    <rect x="306" y="534" width="128" height="12" rx="6" fill="#4BD0AD"/>
    <rect x="450" y="534" width="174" height="12" rx="6" fill="#C0CBD0"/>
    <rect x="306" y="566" width="236" height="12" rx="6" fill="#6E8782"/>
  </g>

  <g>
    <rect x="626" y="276" width="176" height="132" rx="18" fill="#0F171D" stroke="#304048" stroke-width="2"/>
    <path d="M654 370L690 332L720 356L772 298" stroke="#4BD0AD" stroke-width="7" stroke-linecap="round" stroke-linejoin="round"/>
    <circle cx="654" cy="370" r="8" fill="#4BD0AD"/>
    <circle cx="690" cy="332" r="8" fill="#7EC0FF"/>
    <circle cx="720" cy="356" r="8" fill="#D1AA66"/>
    <circle cx="772" cy="298" r="8" fill="#B6C3C8"/>
  </g>

  <g opacity="0.96">
    <rect x="1000" y="252" width="118" height="12" rx="6" fill="#2D8F76"/>
    <rect x="1000" y="286" width="182" height="10" rx="5" fill="#95AAA4"/>
    <rect x="1000" y="310" width="160" height="10" rx="5" fill="#C4D0CC"/>
    <rect x="1000" y="344" width="136" height="10" rx="5" fill="#7EC0FF"/>
    <rect x="1000" y="368" width="210" height="10" rx="5" fill="#D2B171"/>
    <rect x="1222" y="252" width="82" height="82" rx="14" fill="#F3F8F6" stroke="#DDE7E2" stroke-width="2"/>
    <path d="M1242 314L1260 292L1278 304L1287 278" stroke="#1F7A65" stroke-width="5" stroke-linecap="round" stroke-linejoin="round"/>
  </g>

  <g opacity="0.96">
    <rect x="996" y="538" width="118" height="12" rx="6" fill="#2D8F76"/>
    <rect x="996" y="572" width="112" height="10" rx="5" fill="#9FB2AD"/>
    <rect x="996" y="596" width="92" height="10" rx="5" fill="#C5D2CE"/>
    <rect x="996" y="620" width="104" height="10" rx="5" fill="#D1AA66"/>

    <rect x="1192" y="538" width="116" height="12" rx="6" fill="#7EC0FF"/>
    <rect x="1192" y="572" width="104" height="10" rx="5" fill="#9FB2AD"/>
    <rect x="1192" y="596" width="128" height="10" rx="5" fill="#C5D2CE"/>
    <rect x="1192" y="620" width="88" height="10" rx="5" fill="#4BD0AD"/>
  </g>

  <g opacity="0.9">
    <circle cx="906" cy="272" r="10" fill="#4BD0AD"/>
    <circle cx="944" cy="322" r="9" fill="#7EC0FF"/>
    <circle cx="904" cy="382" r="9" fill="#D1AA66"/>
    <circle cx="876" cy="558" r="10" fill="#4BD0AD"/>
    <circle cx="926" cy="616" r="9" fill="#7EC0FF"/>
    <circle cx="882" cy="670" r="9" fill="#D1AA66"/>
    <path d="M906 272C950 274 970 284 988 300" stroke="#A7BAB4" stroke-width="4" stroke-linecap="round"/>
    <path d="M944 322C978 326 992 342 1010 360" stroke="#B9C8C3" stroke-width="4" stroke-linecap="round"/>
    <path d="M904 382C966 388 992 412 1014 448" stroke="#C7D2CE" stroke-width="4" stroke-linecap="round"/>
    <path d="M876 558C952 558 1000 572 1090 592" stroke="#A7BAB4" stroke-width="4" stroke-linecap="round"/>
    <path d="M926 616C1004 616 1100 610 1192 592" stroke="#B9C8C3" stroke-width="4" stroke-linecap="round"/>
    <path d="M882 670C970 664 1084 662 1192 642" stroke="#C7D2CE" stroke-width="4" stroke-linecap="round"/>
  </g>

  <g opacity="0.78">
    <rect x="260" y="146" width="180" height="54" rx="16" fill="#FFFFFF"/>
    <rect x="282" y="167" width="88" height="10" rx="5" fill="#2D8F76"/>
    <rect x="282" y="184" width="128" height="8" rx="4" fill="#A8BBB5"/>
  </g>

  <g opacity="0.82">
    <rect x="1164" y="108" width="196" height="60" rx="18" fill="#FFFFFF"/>
    <rect x="1188" y="130" width="76" height="10" rx="5" fill="#7EC0FF"/>
    <rect x="1188" y="147" width="126" height="8" rx="4" fill="#B7C7C2"/>
  </g>
</svg>
